<svg width="96" height="96" xmlns="http://www.w3.org/2000/svg" xmlns:xlink="http://www.w3.org/1999/xlink" xml:space="preserve" overflow="hidden"><defs><clipPath id="clip0"><rect x="276" y="163" width="96" height="96"/></clipPath><radialGradient cx="237.47" cy="180.29" r="325.14" gradientUnits="userSpaceOnUse" spreadMethod="pad" id="fill1" gradientTransform="matrix(0.205128 0 0 0.172308 276 168.887)"><stop offset="0" stop-color="#385E82"/><stop offset="0.03" stop-color="#5A7796"/><stop offset="0.54" stop-color="#003057"/><stop offset="1" stop-color="#003057"/></radialGradient><linearGradient x1="289.27" y1="181.002" x2="289.27" y2="202.914" gradientUnits="userSpaceOnUse" spreadMethod="pad" id="fill2"><stop offset="0" stop-color="#FFFFFF"/><stop offset="0.23" stop-color="#FFFFFF"/><stop offset="0.75" stop-color="#DADFE7"/><stop offset="1" stop-color="#DADFE7"/></linearGradient><linearGradient x1="351.965" y1="180.996" x2="351.965" y2="202.916" gradientUnits="userSpaceOnUse" spreadMethod="pad" id="fill3"><stop offset="0" stop-color="#FFFFFF"/><stop offset="0.23" stop-color="#FFFFFF"/><stop offset="0.75" stop-color="#DADFE7"/><stop offset="1" stop-color="#DADFE7"/></linearGradient><linearGradient x1="328.931" y1="181.002" x2="328.931" y2="202.916" gradientUnits="userSpaceOnUse" spreadMethod="pad" id="fill4"><stop offset="0" stop-color="#FFFFFF"/><stop offset="0.23" stop-color="#FFFFFF"/><stop offset="0.75" stop-color="#DADFE7"/><stop offset="1" stop-color="#DADFE7"/></linearGradient><linearGradient x1="346.185" y1="181" x2="346.185" y2="202.916" gradientUnits="userSpaceOnUse" spreadMethod="pad" id="fill5"><stop offset="0" stop-color="#FFFFFF"/><stop offset="0.23" stop-color="#FFFFFF"/><stop offset="0.75" stop-color="#DADFE7"/><stop offset="1" stop-color="#DADFE7"/></linearGradient><linearGradient x1="315.257" y1="181.002" x2="315.257" y2="202.916" gradientUnits="userSpaceOnUse" spreadMethod="pad" id="fill6"><stop offset="0" stop-color="#FFFFFF"/><stop offset="0.23" stop-color="#FFFFFF"/><stop offset="0.75" stop-color="#DADFE7"/><stop offset="1" stop-color="#DADFE7"/></linearGradient><linearGradient x1="307.11" y1="180.99" x2="307.11" y2="202.916" gradientUnits="userSpaceOnUse" spreadMethod="pad" id="fill7"><stop offset="0" stop-color="#FFFFFF"/><stop offset="0.23" stop-color="#FFFFFF"/><stop offset="0.75" stop-color="#DADFE7"/><stop offset="1" stop-color="#DADFE7"/></linearGradient></defs><g clip-path="url(#clip0)" transform="translate(-276 -163)"><path d="M370.423 211C370.423 185.359 349.641 164.573 324 164.573 298.359 164.573 277.579 185.359 277.579 211 277.579 236.641 298.359 257.427 324 257.427 349.641 257.427 370.423 236.641 370.423 211Z" fill="url(#fill1)"/><path d="M370.423 211C370.424 207.149 369.947 203.312 369.003 199.578 366.369 198.247 363.422 196.957 363.422 196.957L344.365 194.159 325.175 186.696 320.718 183.886 316.515 182.282 314.915 184.413 308.786 189.336 306.119 191.068 302.256 193.217 299.971 193.375 295.592 194.417 284.665 198.549C284.665 198.549 281.335 199.207 278.806 200.395 277.992 203.87 277.579 207.427 277.575 210.996 277.577 236.641 298.359 257.425 324 257.425 349.641 257.425 370.423 236.641 370.423 211Z" fill="#003057"/><path d="M280.745 199.135C281.309 198.661 281.936 198.265 282.607 197.96 283.007 197.818 283.419 197.712 283.838 197.642 284.806 197.425 285.834 197.189 286.71 196.717 287.231 196.44 287.795 196.274 288.297 195.97 288.483 195.863 288.676 195.77 288.876 195.691 289.106 195.601 289.467 195.542 289.61 195.353 289.672 195.275 289.664 195.148 289.709 195.055 289.779 194.929 289.865 194.811 289.963 194.705 290.098 194.538 290.254 194.393 290.373 194.225 290.492 194.056 290.523 193.987 290.784 193.999 291.104 193.999 291.424 194.075 291.715 193.931 292.074 193.755 292.09 193.408 292.589 193.605 292.794 193.685 292.966 193.923 293.204 193.925 293.37 193.925 293.491 193.804 293.631 193.759 293.836 193.689 293.994 193.724 294.158 193.628 294.252 193.576 294.267 193.509 294.363 193.468 294.712 193.343 295.218 193.492 295.563 193.521 296.014 193.56 296.418 193.648 296.876 193.648 297.175 193.648 297.491 193.634 297.778 193.648 297.516 194.208 296.644 194.216 296.246 194.608 295.582 195.269 297.169 195.363 297.497 195.365 297.269 195.469 297.051 195.594 296.845 195.738 296.684 195.93 296.504 196.104 296.308 196.259 296.082 196.383 295.832 196.453 295.575 196.465 295.346 196.465 295.106 196.276 294.925 196.415 294.925 196.415 294.798 196.657 294.798 196.659 294.55 197.018 294.429 197.035 294 197.037 293.43 197.037 293.565 196.994 293.438 197.361 293.28 197.833 292.658 197.888 292.326 198.21 292.168 198.362 292.164 198.522 291.846 198.44 291.528 198.358 291.559 198.2 291.321 198.463 291.203 198.635 291.022 198.754 290.816 198.795 290.599 198.856 290.32 198.844 290.113 198.969 289.959 199.062 289.245 199.728 289.21 199.238 289.21 199.055 289.383 199.002 289.428 198.828 289.491 198.598 289.395 198.331 289.097 198.417 288.874 198.491 288.782 198.662 288.496 198.594 288.34 198.528 288.174 198.488 288.004 198.475 287.538 198.475 287.093 198.565 286.911 199.01 286.81 199.263 286.656 199.798 286.402 199.898 286.24 199.96 286.059 199.911 285.887 200.003 285.715 200.095 285.74 200.128 285.6 200.231 285.251 200.485 285.089 200.143 284.808 200.077 284.455 199.993 283.842 200.251 283.869 199.683 283.883 199.394 284.094 199.045 283.602 199.01 283.366 198.994 283.419 199.181 283.245 199.236 283.171 199.261 283.081 199.195 283.003 199.191 282.784 199.178 282.728 199.201 282.712 199.433 282.392 199.433 281.932 200.083 281.686 199.831 281.633 199.777 281.629 199.611 281.594 199.539 281.557 199.438 281.471 199.361 281.366 199.334 281.192 199.267 280.821 199.359 280.72 199.213" fill="url(#fill2)"/><path d="M349.641 199.308C349.775 199.472 349.931 199.617 350.105 199.738 350.326 199.882 350.601 199.907 350.796 200.069 351.077 200.296 350.931 201.078 351.411 200.91 351.645 200.828 351.594 200.594 351.711 200.411 351.828 200.229 352.021 200.155 352.107 200.428 352.176 200.653 351.994 200.793 352.181 200.951 352.367 201.109 352.56 201.016 352.736 200.908 352.931 200.769 353.137 200.647 353.352 200.543 353.504 200.464 353.647 200.368 353.776 200.255 354.078 200.038 354.345 199.905 354.353 199.459 354.353 199.277 354.353 199.211 354.148 199.234 353.943 199.256 354.031 199.367 353.891 199.486 353.752 199.605 353.623 199.486 353.446 199.572 353.27 199.658 353.276 199.87 353.063 199.79 353.05 199.584 353.06 199.378 353.091 199.174 352.827 199.218 352.574 199.314 352.347 199.455 352.247 199.51 352.129 199.526 352.018 199.498 351.928 199.466 351.834 199.441 351.74 199.423 351.614 199.433 351.488 199.451 351.364 199.476 351.141 199.476 350.983 199.365 350.749 199.347 350.373 199.322 350.01 199.394 349.639 199.375" fill="url(#fill3)"/><path d="M365.026 198.126C364.55 198.173 363.512 198.05 363.641 197.369 364.051 197.47 364.548 197.308 364.96 197.258 365.575 197.185 366.23 197.236 366.849 197.213 366.4 197.031 365.986 197.158 365.551 196.943 365.04 196.684 364.525 196.707 363.975 196.623 363.858 196.604 363.737 196.516 363.633 196.495 363.257 196.417 362.857 196.442 362.476 196.362 361.292 196.12 360.197 196.056 359.081 195.566 358.617 195.361 357.934 195.299 357.44 195.199 356.726 195.053 355.555 194.883 354.831 194.657 354.061 194.425 353.27 194.267 352.47 194.186 351.836 194.095 351.307 193.946 350.671 193.796 349.834 193.591 347.762 193.386 347.389 193.246 346.219 192.809 346.068 192.984 344.962 192.59 344.445 192.403 343.13 192.093 342.601 191.923 342.072 191.753 341.502 191.718 340.995 191.562 340.564 191.425 340.117 191.287 339.694 191.123 339.478 191.028 339.272 190.911 339.079 190.774 338.806 190.598 338.474 190.582 338.162 190.502 337.813 190.415 337.469 190.309 337.114 190.237 336.759 190.165 336.414 189.987 336.047 189.882 335.871 189.862 335.698 189.82 335.532 189.757 335.327 189.65 335.309 189.697 335.04 189.634 334.734 189.566 334.404 189.429 334.103 189.365 333.648 189.237 333.205 189.066 332.782 188.856 332.501 188.729 332.258 188.555 331.961 188.434 331.317 188.171 330.689 187.909 330.08 187.613 329.696 187.423 329.126 187.613 328.784 187.408 328.685 187.347 328.669 187.265 328.578 187.158 328.462 186.999 328.294 186.885 328.103 186.836 327.873 186.758 327.941 186.752 327.772 186.614 327.481 186.376 327.124 186.409 326.909 186.061 326.701 185.77 326.463 185.502 326.199 185.261 326.059 185.117 325.912 184.953 325.768 184.824 325.618 184.733 325.459 184.656 325.294 184.594 325.028 184.438 324.919 184.196 324.695 184.015 324.318 183.745 323.861 183.609 323.397 183.63 323.185 183.658 322.969 183.64 322.765 183.576 322.56 183.482 322.492 183.371 322.246 183.316 321.904 183.254 321.643 183.343 321.309 183.379 321.105 183.413 320.897 183.413 320.693 183.379 320.563 183.273 320.444 183.152 320.341 183.018 320.059 182.711 319.84 182.348 319.391 182.294 319.081 182.259 318.81 182.313 318.507 182.206 318.267 182.112 318.037 181.994 317.822 181.853 317.67 181.765 317.364 181.478 317.206 181.459 317.048 181.441 316.901 181.585 316.784 181.665 316.33 181.927 315.863 182.165 315.385 182.376 314.929 182.582 314.652 182.92 314.314 183.271 314.041 183.554 313.801 184.114 313.481 184.251 313.307 184.327 313.214 184.264 313.085 184.442 312.981 184.586 312.954 184.815 312.833 184.967 312.525 185.353 312.086 185.144 311.807 185.527 311.71 185.712 311.569 185.871 311.397 185.989 311.145 186.136 310.987 186.102 310.818 186.383 310.753 186.531 310.675 186.673 310.585 186.807 310.435 186.99 310.242 187.109 310.08 187.277 309.698 187.687 309.282 187.892 308.827 188.227 308.572 188.411 308.287 188.381 308.148 188.674 308.049 188.879 308.084 188.945 307.85 189.064 307.699 189.113 307.555 189.182 307.422 189.269 307.128 189.537 306.917 189.974 306.646 190.257 306.295 190.625 306.316 190.198 306.217 189.888 306.012 189.888 305.647 190.216 305.502 190.36 305.151 190.703 304.886 191.123 304.525 191.457 304.077 191.851 303.588 192.194 303.067 192.483 302.566 192.772 302.064 192.639 301.502 192.719 301.182 192.768 301.017 192.961 300.812 193.191 300.544 193.49 300.338 193.435 299.979 193.396 299.621 193.357 299.276 193.644 299.017 193.905 298.595 194.3 298.329 194.833 298.267 195.408 298.185 195.952 297.844 196.095 297.362 196.253 297.266 196.288 297.208 196.36 297.112 196.393 296.974 196.436 296.808 196.393 296.677 196.442 296.496 196.518 296.562 196.579 296.503 196.717 296.394 196.969 296.369 196.984 296.127 197.049 295.885 197.115 295.659 197.211 295.415 197.273 295.124 197.349 294.8 197.4 294.611 197.628 294.492 197.763 294.427 197.999 294.238 198.069 294.049 198.138 293.988 198.007 293.854 197.954 293.649 197.868 293.649 197.909 293.479 198.067 293.134 198.378 292.609 198.51 292.209 198.729 291.85 198.934 291.184 198.729 291.099 199.322 291.299 199.265 291.508 199.243 291.715 199.256 291.742 199.743 290.574 200.553 291.19 200.977 291.522 201.203 292.105 200.891 292.111 200.528 292.111 200.348 292.018 200.161 292.059 199.974 292.133 199.747 292.305 199.564 292.527 199.476 292.878 199.377 292.821 199.681 293.03 199.79 293.311 199.946 293.506 199.601 293.61 199.425 293.766 199.16 293.975 198.828 294.287 198.733 294.599 198.639 294.853 198.758 295.065 198.413 295.132 198.311 295.13 198.104 295.239 198.03 295.348 197.956 295.727 198.003 295.873 198.048 296.187 198.141 296.158 198.458 296.396 198.643 296.888 199.031 297.422 198.186 297.528 197.823 297.752 197.777 297.891 197.529 298.084 197.394 298.181 197.583 298.306 197.548 298.338 197.745 298.365 197.905 298.31 197.911 298.236 198.015 298.121 198.188 297.916 198.29 298.072 198.526 298.17 198.676 298.581 198.84 298.277 199.057 297.973 199.275 296.73 198.707 297.456 199.57 297.573 199.691 297.63 199.857 297.612 200.024 297.869 200.163 298.174 200.007 298.398 200.147 298.622 200.286 298.716 200.516 298.862 200.682 299.067 200.916 299.286 201.027 299.575 200.817 299.731 200.712 299.839 200.549 299.875 200.364 300.209 200.317 300.566 200.397 300.901 200.364 300.901 200.013 300.937 199.544 300.761 199.24 301.042 199.194 301.328 199.274 301.545 199.459 301.826 199.699 302.045 199.925 302.451 199.792 302.43 199.593 302.451 199.391 302.515 199.201 302.615 198.996 302.833 198.819 302.862 198.586 302.974 198.791 303.272 198.826 303.44 198.967 303.604 199.082 303.711 199.262 303.733 199.462 303.805 199.616 303.812 199.792 303.754 199.952 303.631 200.192 303.362 200.091 303.093 200.104 303.095 200.125 303.095 200.147 303.093 200.169 303.37 200.253 303.629 200.495 303.914 200.524 303.897 200.729 304.172 201.103 304.006 201.271 303.84 201.439 303.45 201.066 303.29 200.992 303.022 200.854 302.47 200.682 302.289 201.01 302.228 201.121 302.269 201.203 302.244 201.322 302.215 201.476 302.139 201.507 302.078 201.642 301.906 202.028 302.283 202.245 302.644 202.216 302.831 202.2 303.017 202.167 303.198 202.118 303.372 202.069 303.53 201.937 303.676 201.894 304.086 201.775 304.511 202.163 304.736 201.654 304.845 201.408 304.786 201.115 304.8 200.834 304.815 200.701 304.815 200.567 304.8 200.434 304.751 200.245 304.55 200.151 304.669 199.983 304.788 199.814 304.964 199.95 304.974 199.71 304.985 199.517 304.859 199.478 304.927 199.279 305.012 199.093 305.147 198.934 305.317 198.819 305.541 198.653 305.809 198.778 305.908 199.062 305.996 199.306 305.752 199.525 305.867 199.769 305.958 199.967 306.192 200.053 306.389 199.962 306.409 199.953 306.429 199.942 306.447 199.929 306.533 199.822 306.563 199.681 306.529 199.548 306.486 199.137 306.496 199.018 306.835 198.762 307.04 198.598 307.348 198.436 307.463 198.707 307.522 198.848 307.448 199.062 307.491 199.211 307.534 199.361 307.668 199.433 307.696 199.535 307.725 199.638 307.696 199.814 307.727 199.946 308.07 200.044 308.043 199.946 308.244 199.683 308.263 199.656 308.219 199.583 308.244 199.56 308.328 199.451 308.427 199.503 308.57 199.48 308.859 199.433 309.048 199.287 308.942 198.973 308.835 198.659 308.222 198.483 308.226 198.186 308.56 198.155 308.636 198.034 308.841 197.818 308.919 197.741 308.999 197.581 309.069 197.523 309.196 197.41 309.426 197.404 309.61 197.355 310.117 197.219 310.595 197.308 311.134 197.248 311.467 197.203 311.792 197.112 312.101 196.979 312.767 196.707 313.452 196.364 313.873 195.749 313.997 195.505 314.187 195.301 314.421 195.158 314.652 195.025 315.112 194.858 315.272 194.651 315.387 194.497 315.333 194.446 315.499 194.337 315.612 194.267 315.736 194.219 315.867 194.196 316.211 194.097 316.55 193.981 316.892 193.864 317.235 193.747 317.477 193.708 317.223 193.351 317.157 193.258 316.954 193.117 316.983 193.014 317.011 192.912 317.292 192.897 317.362 192.809 317.516 192.604 317.376 192.048 317.344 191.8 317.323 191.677 317.231 191.462 317.321 191.345 317.506 191.111 317.799 191.421 318.002 191.324 318.205 191.228 318.162 190.735 318.291 190.545 318.447 190.309 318.788 190.223 318.972 189.995 319.049 190.198 319.081 190.416 319.065 190.633 319.02 190.893 318.753 190.926 318.699 191.248 318.677 191.388 318.738 191.574 318.699 191.712 318.661 191.849 318.566 191.901 318.441 192.001 318.198 192.164 317.989 192.373 317.826 192.616 317.421 193.252 317.4 194.059 317.77 194.715 317.903 194.939 318.016 195.175 318.109 195.418 318.141 195.564 318.198 195.703 318.277 195.829 318.516 196.074 318.819 196.246 319.153 196.323 319.364 196.389 319.556 196.506 319.711 196.664 319.813 196.789 319.949 196.882 320.103 196.932 320.332 196.998 320.601 196.961 320.792 197.107 320.945 197.251 321.077 197.416 321.186 197.597 321.275 197.584 321.361 197.555 321.44 197.511 321.703 197.414 321.69 197.392 321.904 197.511 322.043 197.581 322.109 197.673 322.252 197.716 322.416 197.743 322.581 197.761 322.747 197.771 322.847 198.182 323.319 198.182 323.645 198.208 323.971 198.235 324.055 198.368 324.306 198.569 324.414 198.659 324.572 198.723 324.681 198.815 324.794 198.942 324.934 199.04 325.091 199.103 325.073 198.961 325.035 198.823 324.978 198.692 324.852 198.414 324.782 198.112 324.773 197.806 324.796 197.528 324.804 197.248 324.798 196.969 324.772 196.764 324.783 196.556 324.829 196.354 324.939 195.944 325.391 195.501 325.744 195.295 326.219 195.016 326.769 194.975 326.548 194.36 326.394 193.939 326.599 193.886 326.89 193.617 327.142 193.37 327.258 193.016 327.2 192.668 327.149 192.313 326.966 191.968 326.909 191.609 326.891 191.374 326.902 191.138 326.939 190.906 326.947 191.242 326.999 191.576 327.093 191.898 327.344 192.719 328.373 192.949 328.794 193.65 328.681 193.855 328.468 193.956 328.414 194.216 328.398 194.307 328.386 194.442 328.377 194.526 328.364 194.703 328.301 194.873 328.195 195.016 327.977 195.388 328.027 195.821 327.774 196.175 327.657 196.342 327.497 196.465 327.376 196.623 327.278 196.773 327.208 196.941 327.171 197.117 327.032 197.518 327.206 197.961 327.582 198.159 327.799 198.296 328.308 198.569 328.478 198.227 328.552 198.079 328.398 197.804 328.478 197.661 328.605 197.429 328.837 197.624 329.017 197.693 329.198 197.763 329.575 197.771 329.655 197.972 329.735 198.173 329.573 198.223 329.475 198.35 329.194 198.729 329.487 198.932 329.664 199.252 330.002 199.416 330.027 200.073 330.457 199.599 330.679 199.365 331.02 198.994 331.374 199.068 331.364 199.206 331.342 199.343 331.309 199.478 331.271 199.585 331.227 199.689 331.175 199.79 331.083 200.104 331.313 200.093 331.512 200.221 331.711 200.348 332.004 200.571 332.322 200.339 332.64 200.108 332.082 199.952 332.254 199.687 332.459 199.377 332.665 199.798 332.71 199.937 332.79 200.192 332.71 200.403 333.032 200.456 333.327 200.459 333.617 200.383 333.873 200.235 334.238 200.05 334.037 199.929 334.078 199.644 333.824 199.644 333.643 199.673 333.448 199.546 333.206 199.386 332.833 199.156 333.038 198.809 333.198 198.526 333.627 198.374 333.887 198.204 334.141 198.008 334.425 197.854 334.728 197.749 334.671 198.044 334.572 198.194 334.648 198.508 334.981 198.555 335.36 198.403 335.698 198.485 335.967 198.549 336.234 198.707 336.519 198.746 336.804 198.785 337.194 198.764 337.385 198.541 337.616 198.274 337.489 197.944 337.163 197.956 336.901 197.956 336.734 198.044 336.587 197.771 336.52 197.619 336.498 197.451 336.521 197.287 336.552 196.799 337.024 196.243 337.403 195.95 337.878 195.604 338.332 195.231 338.763 194.832 339.007 194.592 339.463 194.286 339.551 193.935 339.55 194.141 339.535 194.347 339.506 194.551 339.484 194.69 339.426 194.821 339.337 194.93 339.278 195.025 339.19 195.076 339.206 195.193 339.235 195.41 339.67 195.757 339.77 195.958 339.885 196.19 339.873 196.504 339.92 196.76 340.094 197.771 341.192 198.216 341.766 198.979 341.848 199.088 341.879 199.322 341.992 199.39 342.178 199.513 342.306 199.258 342.472 199.146 342.638 199.033 342.962 198.83 343.186 198.852 343.409 198.875 343.428 199.021 343.668 199.004 343.953 198.984 344.17 198.758 344.439 198.69 344.563 198.664 344.691 198.664 344.814 198.69 345.104 198.718 345.397 198.699 345.68 198.633 345.885 198.584 346.072 198.428 346.277 198.372 346.521 198.309 346.47 198.448 346.687 198.565 346.814 198.633 346.976 198.598 347.097 198.653 347.213 198.713 347.32 198.788 347.415 198.877 347.596 199.021 347.551 199.027 347.77 198.904 347.887 198.838 348.027 198.785 348.139 198.698 348.32 198.577 348.437 198.36 348.638 198.274 348.838 198.219 349.047 198.203 349.253 198.225 349.621 198.225 349.664 198.188 349.674 198.565 349.838 198.565 350.001 198.544 350.16 198.504 350.442 198.488 350.725 198.5 351.005 198.538 351.483 198.596 351.897 198.407 352.373 198.333 352.722 198.274 353.075 198.434 353.399 198.255 353.555 198.173 353.692 198.083 353.698 197.909 353.698 197.771 353.555 197.716 353.579 197.568 353.965 197.523 354.472 197.734 354.855 197.806 355.239 197.878 355.598 197.989 355.992 197.911 356.308 197.851 356.62 197.769 356.925 197.665 357.065 197.58 357.239 197.572 357.387 197.644 357.506 197.695 357.688 197.738 357.797 197.788 357.986 197.88 358.025 197.993 358.275 198.04 358.647 198.118 359.035 198.058 359.366 197.87 359.524 197.763 359.703 197.505 359.871 197.665 360.039 197.825 359.809 198.102 359.957 198.245 360.051 198.337 360.455 198.325 360.589 198.346 360.946 198.395 361.319 198.43 361.674 198.51 361.981 198.57 362.291 198.611 362.603 198.631 362.898 198.664 363.186 198.824 363.479 198.881 363.92 198.971 364.361 198.867 364.8 198.846 365.19 198.832 365.651 198.924 366.031 198.846 366.267 198.781 366.497 198.697 366.72 198.594 366.462 198.518 366.271 198.29 366.023 198.184 365.774 198.077 365.335 198.097 365.026 198.126ZM305.949 192.565C305.897 192.77 306.033 193.275 305.877 193.427 305.805 193.496 305.602 193.492 305.51 193.505 305.225 193.544 305.266 193.587 305.075 193.767 304.884 193.948 304.636 193.972 304.699 194.307 304.769 194.688 304.966 194.803 304.414 194.998 304.2 195.043 304.002 195.144 303.84 195.291 303.67 195.477 303.486 195.649 303.29 195.808 302.654 196.218 301.69 196.032 300.983 196.013 300.949 196.009 300.914 196.009 300.88 196.013L301.001 195.987C301.251 195.73 301.586 195.734 301.822 195.457 301.99 195.23 302.185 195.023 302.402 194.842 302.673 194.637 303.042 194.543 303.194 194.227 303.346 193.911 303.378 193.64 303.594 193.384 303.961 192.947 304.675 192.836 305.118 192.493 305.463 192.225 306.047 191.597 306.583 191.658 306.406 191.976 306.035 192.221 305.949 192.565ZM315.073 185.673C314.956 186.328 314.798 186.975 314.599 187.609 314.511 187.853 314.445 188.093 314.373 188.342 314.246 188.781 314.018 188.91 313.717 189.197 313.372 189.525 313.192 189.751 312.691 189.901 312.243 190.019 311.78 190.071 311.317 190.054L311.807 189.882C311.941 189.847 312.012 189.749 312.109 189.689 312.265 189.603 312.478 189.542 312.654 189.443 312.945 189.29 313.183 189.056 313.342 188.768 313.456 188.551 313.493 188.292 313.631 188.067 313.746 187.91 313.885 187.772 314.041 187.656 314.26 187.451 314.246 187.201 314.361 186.928 314.486 186.612 314.599 186.294 314.747 185.985 314.925 185.615 315.192 185.256 315.323 184.873 315.367 184.64 315.435 184.412 315.528 184.194 315.59 184.799 315.192 185.119 315.069 185.673ZM316.864 183.211 317.221 182.975C317.531 183.24 317.889 183.444 318.275 183.576 318.589 183.646 318.893 183.751 319.184 183.888 319.345 183.985 319.515 184.065 319.692 184.128 319.996 184.225 321.678 184.489 321.565 184.858 321.13 184.922 320.663 184.653 320.884 185.291 321.005 185.644 321.573 186.21 321.485 186.586 320.917 186.327 320.999 185.24 320.215 185.324 320.238 185.586 320.322 185.839 320.462 186.063 319.986 186.003 319.807 185.593 319.545 185.293 319.417 185.148 319.175 184.883 318.954 184.994 318.878 185.027 318.843 185.185 318.759 185.23 318.533 185.291 318.294 185.291 318.068 185.23 317.805 185.086 317.893 184.614 317.863 184.323 317.829 184.008 317.726 183.705 317.561 183.435 317.409 183.208 317.121 183.116 316.866 183.211" fill="url(#fill4)"/><path d="M347.514 200.44C347.561 200.327 347.701 200.136 347.686 200.003 347.659 199.757 347.387 199.798 347.202 199.704 346.915 199.554 346.73 199.363 346.347 199.447 346.142 199.494 346.045 199.702 345.856 199.724 345.744 199.741 345.635 199.646 345.532 199.622 345.283 199.579 345.027 199.597 344.786 199.673 344.661 199.695 344.297 199.65 344.189 199.736 344.027 199.87 344.154 200.305 344.117 200.51 344.427 200.463 344.564 200.674 344.712 200.858 344.939 201.142 345.21 201.117 345.584 201.101 346.01 201.085 346.438 201.111 346.859 201.178 346.993 201.202 347.123 201.238 347.249 201.287 347.555 201.386 348.004 201.367 348.275 201.539 347.969 201.414 347.407 200.846 347.549 200.489" fill="url(#fill5)"/><path d="M317.339 194.337C317.132 194.433 316.981 194.619 316.929 194.842 316.872 194.975 316.794 195.098 316.697 195.205 316.663 195.252 316.566 195.273 316.544 195.318 316.521 195.363 316.564 195.457 316.544 195.511 316.445 195.717 316.375 195.936 316.338 196.161 316.31 196.867 317.399 196.485 317.83 196.456 317.79 196.478 317.747 196.494 317.703 196.506 317.614 196.622 317.511 196.727 317.397 196.817 317.22 196.951 317.013 197.038 316.794 197.07 316.523 197.115 316.572 197.123 316.533 197.392 316.503 197.597 316.443 197.763 316.222 197.759 315.902 197.759 316.041 197.349 315.824 197.322 315.651 197.304 315.735 197.527 315.651 197.628 315.512 197.784 315.495 197.64 315.434 197.503 315.311 197.232 315.319 197.183 314.987 197.263 314.948 197.468 315.147 197.661 315.061 197.878 314.974 198.095 314.8 198.065 314.562 197.993 314.439 197.958 314.367 197.993 314.357 197.849 313.998 198.432 313.257 198.221 312.658 198.206 312.851 197.921 313.225 198.026 313.434 197.786 313.475 197.738 313.465 197.658 313.502 197.611 313.538 197.564 313.614 197.539 313.655 197.494 313.74 197.408 313.803 197.371 313.783 197.236 314.103 197.181 314.08 197.135 314.098 196.861 314.121 196.51 314.382 196.612 314.542 196.358 314.669 196.153 314.558 195.847 314.952 196.011 315.262 196.138 315.376 196.391 315.594 196.048 315.684 195.909 315.762 195.762 315.826 195.609 315.891 195.416 315.809 195.199 315.873 195.021 316.059 194.493 316.718 194.37 317.198 194.368" fill="url(#fill6)"/><path d="M307.424 200.022C307.112 199.999 306.753 200.112 306.636 200.432 306.576 200.596 306.613 200.815 306.564 200.971 306.859 200.879 307.854 200.588 307.618 200.081" fill="url(#fill7)"/><path d="M310.367 207.498C309.867 207.498 309.512 207.351 309.136 207.677 308.87 207.882 308.753 208.268 308.753 208.703L308.753 226.754 308 226.754 295.487 209.113 295.487 223.394C295.487 224.104 295.428 224.723 295.811 225.076 296.107 225.314 296.632 225.314 297.138 225.314L298.258 225.314 298.258 226.257 291.865 226.257 291.865 225.314 293.013 225.314C293.458 225.314 293.834 225.254 294.039 224.959 294.425 224.458 294.334 223.896 294.334 223.129L294.334 209.769C294.334 208.914 294.511 207.911 294.039 207.615 293.717 207.379 293.013 207.496 292.359 207.496L291.893 207.496 291.893 206.553 299.655 206.553 307.861 218.356 307.891 208.737C307.891 208.235 307.861 208.028 307.448 207.712 307.153 207.564 306.295 207.507 306.062 207.507L305.175 207.507 305.175 206.563 311.344 206.563 311.344 207.507Z" fill="#FFFFFF"/><path d="M325.776 217.119 323.861 217.119 323.861 225.324 326.394 225.324 326.394 226.268 316.548 226.268 316.548 225.324 318.847 225.324 318.847 207.498 316.658 207.498 316.658 206.555 327.106 206.555C330.349 206.555 334.304 207.677 334.453 211.425 334.63 215.704 330.498 217.119 325.776 217.119ZM328.648 208.237C328.355 207.706 327.262 207.498 326.759 207.498L323.83 207.498 323.861 216.175 326.051 216.175C327.557 216.175 328.029 216.056 328.708 215.082 329.387 214.108 329.288 209.359 328.638 208.237Z" fill="#FFFFFF"/><path d="M355.438 226.325 354.437 226.356 353.196 225.125 352.281 225.685C351.071 226.424 350.156 226.6 348.738 226.711 344.49 227.094 339.649 223.224 338.913 218.095 338.092 212.075 343.368 205.909 348.443 206.085 350.008 206.143 350.981 206.409 352.281 207.207L353.102 207.708 354.045 206.586 355.048 206.586 355.019 212.163 354.164 212.134 353.344 210.362C352.318 208.151 350.423 207.148 348.474 207.059 345.495 206.912 345.052 208.858 344.933 210.895 344.667 214.524 344.373 218.186 344.667 220.485 344.991 223.053 344.462 226.063 349.122 225.798 350.981 225.679 353.344 224.173 354.347 220.811L354.466 220.366 355.469 220.337Z" fill="#FFFFFF"/><path d="M297.68 235.459 296.464 233.738 295.378 233.738 295.378 235.459 294.509 235.459 294.509 230.516 296.718 230.516C297.852 230.516 298.564 231.117 298.564 232.085 298.564 232.906 298.074 233.398 297.385 233.591L298.72 235.459ZM296.642 231.308 295.378 231.308 295.378 232.969 296.648 232.969C297.264 232.969 297.674 232.645 297.674 232.134 297.674 231.624 297.284 231.308 296.642 231.308Z" fill="#FFFFFF"/><path d="M306.094 231.293 303.301 231.293 303.301 232.579 305.778 232.579 305.778 233.359 303.301 233.359 303.301 234.688 306.129 234.688 306.129 235.464 302.437 235.464 302.437 230.52 306.101 230.52Z" fill="#FFFFFF"/><path d="M311.883 232.594C312.931 232.846 313.473 233.224 313.473 234.046 313.473 234.982 312.745 235.531 311.707 235.531 310.948 235.532 310.216 235.25 309.655 234.739L310.178 234.124C310.596 234.531 311.154 234.762 311.737 234.768 312.275 234.768 312.613 234.52 312.613 234.138 312.613 233.757 312.408 233.589 311.499 233.375 310.447 233.123 309.858 232.813 309.858 231.894 309.858 231.033 310.564 230.458 311.545 230.458 312.196 230.444 312.832 230.662 313.337 231.074L312.872 231.73C312.492 231.419 312.021 231.241 311.53 231.224 311.024 231.224 310.726 231.484 310.726 231.816 310.712 232.198 310.937 232.368 311.883 232.594Z" fill="#FFFFFF"/><path d="M320.976 231.293 318.183 231.293 318.183 232.579 320.661 232.579 320.661 233.359 318.183 233.359 318.183 234.688 321.013 234.688 321.013 235.464 317.321 235.464 317.321 230.52 320.985 230.52Z" fill="#FFFFFF"/><path d="M329.588 235.459 328.671 235.459 328.17 234.266 325.834 234.266 325.327 235.459 324.439 235.459 326.609 230.487 327.413 230.487ZM326.999 231.513 326.152 233.49 327.852 233.49Z" fill="#FFFFFF"/><path d="M336.421 235.459 335.206 233.738 334.121 233.738 334.121 235.459 333.251 235.459 333.251 230.516 335.454 230.516C336.589 230.516 337.288 231.117 337.288 232.085 337.288 232.906 336.802 233.398 336.111 233.591L337.442 235.459ZM335.385 231.308 334.121 231.308 334.121 232.969 335.391 232.969C336.006 232.969 336.416 232.645 336.416 232.134 336.416 231.624 336.025 231.308 335.385 231.308Z" fill="#FFFFFF"/><path d="M343.465 235.546C342.053 235.535 340.918 234.382 340.928 232.97 340.939 231.559 342.092 230.423 343.504 230.434 344.227 230.408 344.928 230.687 345.436 231.203L344.878 231.847C344.518 231.465 344.02 231.244 343.495 231.232 342.55 231.232 341.867 232.007 341.867 232.984 341.867 233.96 342.55 234.746 343.495 234.746 344.111 234.746 344.492 234.499 344.915 234.106L345.471 234.668C344.968 235.247 344.231 235.57 343.465 235.546Z" fill="#FFFFFF"/><path d="M350.068 233.377 350.068 235.459 349.2 235.459 349.2 230.516 350.068 230.516 350.068 232.567 352.425 232.567 352.425 230.516 353.292 230.516 353.292 235.459 352.425 235.459 352.425 233.377Z" fill="#FFFFFF"/></g></svg>